<svg width="156" height="156" viewBox="0 0 156 156" fill="none" xmlns="http://www.w3.org/2000/svg">
<circle cx="78" cy="78" r="78" fill="black"/>
<g clip-path="url(#clip0_250_303)">
<path d="M116.943 78.6699C116.943 83.4733 116.176 87.974 114.643 92.1719C113.109 96.3294 110.949 99.9622 108.164 103.07C105.379 106.138 102.008 108.56 98.0527 110.336C94.1374 112.112 89.7982 113 85.0352 113H54.5801V100.467H85.0352C88.0625 100.467 90.7669 99.9017 93.1484 98.7715C95.5299 97.6413 97.5482 96.1074 99.2031 94.1699C100.898 92.1921 102.19 89.8913 103.078 87.2676C103.966 84.6035 104.41 81.7376 104.41 78.6699C104.41 75.6426 103.966 72.8171 103.078 70.1934C102.19 67.5697 100.898 65.2891 99.2031 63.3516C97.5482 61.4141 95.5299 59.8802 93.1484 58.75C90.7669 57.6198 88.0625 57.0547 85.0352 57.0547H48.707V113H36.0527V44.582H85.0352C89.7982 44.582 94.1374 45.4701 98.0527 47.2461C102.008 49.0221 105.379 51.444 108.164 54.5117C110.949 57.5794 113.109 61.1921 114.643 65.3496C116.176 69.4668 116.943 73.9069 116.943 78.6699Z" fill="white"/>
<path d="M88.3672 92.6562C88.3672 95.4818 87.8223 98.1257 86.7324 100.588C85.6829 103.05 84.2298 105.21 82.373 107.066C80.5163 108.883 78.3366 110.336 75.834 111.426C73.3717 112.475 70.7279 113 67.9023 113H26.125V100.467H67.9023C69.0326 100.467 70.082 100.265 71.0508 99.8613C72.0195 99.4577 72.847 98.9128 73.5332 98.2266C74.2598 97.5 74.8249 96.6725 75.2285 95.7441C75.6322 94.7754 75.834 93.7461 75.834 92.6562C75.834 91.526 75.6322 90.4766 75.2285 89.5078C74.8249 88.5391 74.2598 87.7116 73.5332 87.0254C72.847 86.2988 72.0195 85.7337 71.0508 85.3301C70.082 84.9264 69.0326 84.7246 67.9023 84.7246H26.125V72.1914H57.7305C58.9414 72.151 60.0716 71.929 61.1211 71.5254C62.1706 71.1217 63.0788 70.597 63.8457 69.9512C64.653 69.265 65.2786 68.4779 65.7227 67.5898C66.1667 66.6615 66.3887 65.6725 66.3887 64.623C66.3887 63.5332 66.1868 62.5443 65.7832 61.6562C65.3796 60.7279 64.8145 59.9206 64.0879 59.2344C63.4017 58.5482 62.5742 58.0234 61.6055 57.6602C60.6771 57.2565 59.668 57.0547 58.5781 57.0547H20.252V113H7.59766V44.582H58.5781C61.3633 44.582 63.987 45.1068 66.4492 46.1562C68.9518 47.2057 71.1113 48.6387 72.9277 50.4551C74.7845 52.2311 76.2376 54.3503 77.2871 56.8125C78.377 59.2344 78.9219 61.8379 78.9219 64.623C78.9219 66.3991 78.6797 68.0742 78.1953 69.6484C77.7513 71.2227 77.1257 72.696 76.3184 74.0684C78.0944 74.8757 79.709 75.9251 81.1621 77.2168C82.6556 78.4681 83.9271 79.901 84.9766 81.5156C86.0664 83.1302 86.8939 84.8861 87.459 86.7832C88.0645 88.64 88.3672 90.5977 88.3672 92.6562Z" fill="white"/>
</g>
<defs>
<clipPath id="clip0_250_303">
<rect width="79" height="69" fill="white" transform="translate(38 44)"/>
</clipPath>
</defs>
</svg>
